<svg xmlns="http://www.w3.org/2000/svg" viewBox="0 0 44.4 33.3"><defs><style>.a{fill:#fff;}.b{isolation:isolate;opacity:1;}</style></defs><path class="a" d="M15.6,26.7H4.4A4.5,4.5,0,0,1,0,22.2V11.1A4.4,4.4,0,0,1,4.4,6.7H15.6A4.4,4.4,0,0,1,20,11.1V22.2A4.5,4.5,0,0,1,15.6,26.7ZM4.4,10a1.1,1.1,0,0,0-1.1,1.1V22.2a1.1,1.1,0,0,0,1.1,1.1H15.6a1.1,1.1,0,0,0,1.1-1.1V11.1A1.1,1.1,0,0,0,15.6,10Z"/><path class="a" d="M4.4,6.7H15.6A4.4,4.4,0,0,1,20,11.1v2.2H0V11.1A4.4,4.4,0,0,1,4.4,6.7Z"/><path class="a" d="M28.9,6.7H40a4.4,4.4,0,0,1,4.4,4.4v2.2h-20V11.1A4.5,4.5,0,0,1,28.9,6.7Z"/><path class="a" d="M40,26.7H28.9a4.5,4.5,0,0,1-4.5-4.5V11.1a4.5,4.5,0,0,1,4.5-4.4H40a4.4,4.4,0,0,1,4.4,4.4V22.2A4.4,4.4,0,0,1,40,26.7ZM28.9,10a1.1,1.1,0,0,0-1.1,1.1V22.2a1.1,1.1,0,0,0,1.1,1.1H40a1.1,1.1,0,0,0,1.1-1.1V11.1A1.1,1.1,0,0,0,40,10Z"/><g class="b"><path class="a" d="M1.7,30H42.8a1.6,1.6,0,0,1,1.6,1.7h0a1.6,1.6,0,0,1-1.6,1.6H1.7A1.6,1.6,0,0,1,0,31.7H0A1.6,1.6,0,0,1,1.7,30Z"/></g><path class="a" d="M1.7,0H42.8a1.6,1.6,0,0,1,1.6,1.7h0a1.6,1.6,0,0,1-1.6,1.6H1.7A1.6,1.6,0,0,1,0,1.7H0A1.6,1.6,0,0,1,1.7,0Z"/></svg>