<svg xmlns="http://www.w3.org/2000/svg" viewBox="0 0 35.6 35.6"><defs><style>.a{fill:#fff;}</style></defs><path class="a" d="M28.9,0H6.7A6.7,6.7,0,0,0,0,6.7V20.9a6.6,6.6,0,0,0,6.7,6.6h9.4v4.7H9.9a1.7,1.7,0,1,0,0,3.4H25.7a1.7,1.7,0,0,0,0-3.4H19.4V27.5h9.5a6.6,6.6,0,0,0,6.7-6.6V6.7A6.7,6.7,0,0,0,28.9,0Zm3.3,20.9a3.3,3.3,0,0,1-3.3,3.3h-.6A5.1,5.1,0,0,0,23.2,19H12.3a5.1,5.1,0,0,0-5.1,5.1H6.7a3.4,3.4,0,0,1-3.4-3.3V6.7A3.4,3.4,0,0,1,6.7,3.3H28.9a3.4,3.4,0,0,1,3.3,3.4Z"/><circle class="a" cx="17.8" cy="11.8" r="4.9"/></svg>