<svg xmlns="http://www.w3.org/2000/svg" viewBox="0 0 35.6 35.6"><defs><style>.a{fill:#fff;}</style></defs><path class="a" d="M28.9,35.6H6.7A6.7,6.7,0,0,1,0,28.9V6.7A6.7,6.7,0,0,1,6.7,0H28.9a6.7,6.7,0,0,1,6.7,6.7V28.9A6.7,6.7,0,0,1,28.9,35.6ZM6.7,3.3A3.4,3.4,0,0,0,3.3,6.7V28.9a3.4,3.4,0,0,0,3.4,3.3H28.9a3.3,3.3,0,0,0,3.3-3.3V6.7a3.4,3.4,0,0,0-3.3-3.4Z"/><rect class="a" x="8" y="13.9" width="3.1" height="15.08" rx="1.6"/><rect class="a" x="14" y="22.3" width="3.1" height="6.66" rx="1.6"/><rect class="a" x="20" y="19.4" width="3.1" height="9.63" rx="1.6"/><rect class="a" x="26" y="15.5" width="3.1" height="13.51" rx="1.6"/></svg>