<svg xmlns="http://www.w3.org/2000/svg" viewBox="0 0 35.6 35.6"><defs><style>.a{fill:#fff;}</style></defs><path class="a" d="M28.9,35.6H6.7A6.7,6.7,0,0,1,0,28.9V6.7A6.7,6.7,0,0,1,6.7,0H28.9a6.7,6.7,0,0,1,6.7,6.7V28.9A6.7,6.7,0,0,1,28.9,35.6ZM6.7,3.3A3.4,3.4,0,0,0,3.3,6.7V28.9a3.4,3.4,0,0,0,3.4,3.3H28.9a3.3,3.3,0,0,0,3.3-3.3V6.7a3.4,3.4,0,0,0-3.3-3.4Z"/><rect class="a" x="18.7" y="1.8" width="3.1" height="17.3" rx="1.6" transform="translate(30.8 -9.8) rotate(90)"/><rect class="a" x="6" y="8.9" width="3.1" height="3.14" rx="1.6" transform="translate(18 3) rotate(90)"/><rect class="a" x="6" y="16.7" width="3.1" height="3.14" rx="1.6" transform="translate(25.8 10.7) rotate(90)"/><rect class="a" x="6" y="24.3" width="3.1" height="3.14" rx="1.6" transform="translate(33.4 18.4) rotate(90)"/><rect class="a" x="15.2" y="13.1" width="3.1" height="10.31" rx="1.4" transform="translate(35 1.4) rotate(90)"/><rect class="a" x="17" y="19" width="3.1" height="13.79" rx="1.6" transform="translate(44.4 7.4) rotate(90)"/></svg>