<svg xmlns="http://www.w3.org/2000/svg" viewBox="0 0 35.6 35.6"><defs><style>.a{fill:#fff;}</style></defs><path class="a" d="M29.3,35.6H6.3A6.3,6.3,0,0,1,0,29.3V6.3A6.3,6.3,0,0,1,6.3,0h23a6.3,6.3,0,0,1,6.3,6.3v23A6.4,6.4,0,0,1,29.3,35.6ZM6.3,3.1A3.2,3.2,0,0,0,3.1,6.3v23a3.1,3.1,0,0,0,3.2,3.1h23a3.1,3.1,0,0,0,3.1-3.1V6.3a3.1,3.1,0,0,0-3.1-3.2Z"/><rect class="a" x="16.2" y="8.1" width="3.1" height="3.14" rx="1.6"/><rect class="a" x="11.1" y="19.5" width="13.3" height="3.33" rx="1.7" transform="translate(-3.3 38.9) rotate(-90)"/></svg>