<svg xmlns="http://www.w3.org/2000/svg" viewBox="0 0 44.4 35.8"><defs><style>.a{fill:#fff;}</style></defs><circle class="a" cx="33.9" cy="20.9" r="4.9"/><path class="a" d="M28.5,28.2H39.3a5.1,5.1,0,0,1,5.1,5.1v2.6a0,0,0,0,1,0,0H23.3a0,0,0,0,1,0,0V33.3A5.1,5.1,0,0,1,28.5,28.2Z"/><path class="a" d="M20,28.9H6.7A6.7,6.7,0,0,1,0,22.2V6.7A6.7,6.7,0,0,1,6.7,0H20a6.7,6.7,0,0,1,6.7,6.7V22.2A6.7,6.7,0,0,1,20,28.9ZM6.7,3.3A3.4,3.4,0,0,0,3.3,6.7V22.2a3.4,3.4,0,0,0,3.4,3.4H20a3.4,3.4,0,0,0,3.3-3.4V6.7A3.4,3.4,0,0,0,20,3.3Z"/><path class="a" d="M6.7.9H20a6.7,6.7,0,0,1,6.7,6.7v3.3H0V7.6A6.7,6.7,0,0,1,6.7.9Z"/><path class="a" d="M23.3,10.9H3.3A3.3,3.3,0,0,1,0,7.6,6.7,6.7,0,0,1,6.7.9H20a6.7,6.7,0,0,1,6.7,6.7A3.4,3.4,0,0,1,23.3,10.9ZM6.7,4.2A3.4,3.4,0,0,0,3.3,7.6h20A3.4,3.4,0,0,0,20,4.2Z"/></svg>