<svg xmlns="http://www.w3.org/2000/svg" viewBox="0 0 35.6 35.6"><defs><style>.a{fill:#fff;}</style></defs><path class="a" d="M10.6,35.3h0a10.4,10.4,0,0,1-7.5-3.1,10.5,10.5,0,0,1,13.6-16l5.5-5.5h0l5.6-5.6h0L31,1.9a1.6,1.6,0,0,1,2.4,0,1.6,1.6,0,0,1,0,2.4l-2,2L35,9.9a1.6,1.6,0,0,1,0,2.4l-5.6,5.6a1.6,1.6,0,0,1-2.4,0l-3.6-3.6-4.3,4.3A10.5,10.5,0,0,1,18,32.2,10.4,10.4,0,0,1,10.6,35.3Zm0-17.7a7.1,7.1,0,0,0-5.1,2.1,7.3,7.3,0,0,0,0,10,7.1,7.1,0,0,0,5.1,2.1h0a6.9,6.9,0,0,0,5-2.1,7.2,7.2,0,0,0,0-10A7,7,0,0,0,10.6,17.6Zm15.2-5.7,2.4,2.4,3.2-3.2L29,8.7Z"/></svg>