<svg xmlns="http://www.w3.org/2000/svg" viewBox="0 0 35.6 29.7"><defs><style>.a{fill:#fff;}</style></defs><path class="a" d="M.5,29.2A1.6,1.6,0,0,1,0,28.1V1.7A1.7,1.7,0,0,1,.5.5,1.7,1.7,0,0,1,1.7,0h0A1.6,1.6,0,0,1,2.8.5a1.3,1.3,0,0,1,.5,1.1h0V28.1h0a1.3,1.3,0,0,1-.5,1.1,1.3,1.3,0,0,1-1.1.5H1.6A1.3,1.3,0,0,1,.5,29.2ZM10.8,9.8V1.7H32.3V9.8h3.3V5.6a5.6,5.6,0,0,0-1.7-4,5.4,5.4,0,0,0-4-1.6H13.5A5.5,5.5,0,0,0,7.9,5.6V9.8h2.9ZM32.2,24.1a2.1,2.1,0,0,1-.7,1.6,2,2,0,0,1-1.5.6H13.5a2,2,0,0,1-1.5-.6,2.1,2.1,0,0,1-.7-1.6V12.2H7.9V24.1a5.5,5.5,0,0,0,5.6,5.6H29.9a5.4,5.4,0,0,0,4-1.6,5.6,5.6,0,0,0,1.7-4V12.2H32.2Zm.1-14.3V1.7H10.8V9.8Zm-.1,0h0Z"/></svg>