<svg xmlns="http://www.w3.org/2000/svg" viewBox="0 0 34.4 35.6"><defs><style>.a{opacity:1;}.b{fill:#fff;}</style></defs><path class="b" d="M27.8,35.6H6.7A6.7,6.7,0,0,1,0,28.9V6.7A6.7,6.7,0,0,1,6.7,0H27.8a6.6,6.6,0,0,1,6.6,6.7V28.9A6.6,6.6,0,0,1,27.8,35.6ZM6.7,3.3A3.4,3.4,0,0,0,3.3,6.7V28.9a3.4,3.4,0,0,0,3.4,3.3H27.8a3.3,3.3,0,0,0,3.3-3.3V6.7a3.4,3.4,0,0,0-3.3-3.4Z"/><path class="b" d="M18.9,35.6H7.8V0H18.9Zm-7.8-3.4h4.5V3.3H11.1Z"/><path class="b" d="M27.8,35.6H26.7a3.4,3.4,0,0,1-3.4-3.4V3.3A3.4,3.4,0,0,1,26.7,0h1.1a6.6,6.6,0,0,1,6.6,6.7V28.9A6.6,6.6,0,0,1,27.8,35.6ZM26.7,3.3V32.2h1.1a3.3,3.3,0,0,0,3.3-3.3V6.7a3.4,3.4,0,0,0-3.3-3.4Zm0-1.6V3.3h0Z"/></svg>