<svg xmlns="http://www.w3.org/2000/svg" viewBox="0 0 35.6 26.9"><defs><style>.a{fill:#fff;}</style></defs><path class="a" d="M32.5.4a4.7,4.7,0,0,0-5.4,1.1l-9.3,9.3L8.5,1.5A4.8,4.8,0,0,0,3.1.4,4.8,4.8,0,0,0,0,5V21.9a5,5,0,0,0,3.1,4.6,5.8,5.8,0,0,0,1.9.4,5,5,0,0,0,3.5-1.5l6.6-6.7V13.4h0L5.8,22.7a1,1,0,0,1-1.3.3,1.2,1.2,0,0,1-.7-1.1V5c0-.8.5-1.1.7-1.1H5a1,1,0,0,1,.8.3l9.3,9.3h0l2.7,2.7,9.3,9.3a4.7,4.7,0,0,0,3.5,1.5,6.5,6.5,0,0,0,1.9-.4,5,5,0,0,0,3.1-4.6V5A4.8,4.8,0,0,0,32.5.4Zm-.7,21.5a1.2,1.2,0,0,1-.7,1.1,1,1,0,0,1-1.3-.3l-9.4-9.3,9.4-9.3a1.1,1.1,0,0,1,1.3-.2c.2,0,.7.3.7,1.1Z"/></svg>