<svg xmlns="http://www.w3.org/2000/svg" viewBox="0 0 35.6 35.6"><defs><style>.a{fill:#1d1d1b;}</style></defs><path class="a" d="M12.5,35.6H5.3A5.2,5.2,0,0,1,.1,30.3V5.3A5.2,5.2,0,0,1,5.3,0h7.2a1.8,1.8,0,0,1,1.7,1.7,1.7,1.7,0,0,1-1.7,1.7H5.3A1.9,1.9,0,0,0,3.5,5.3v25a1.8,1.8,0,0,0,1.8,1.8h7.2a1.8,1.8,0,0,1,1.7,1.7A1.8,1.8,0,0,1,12.5,35.6Z"/><path class="a" d="M22.7,28.4a1.3,1.3,0,0,1-1.2-.5,1.6,1.6,0,0,1,0-2.4l7.7-7.7-7.7-7.7a1.8,1.8,0,0,1,0-2.5,1.8,1.8,0,0,1,2.4,0l8.9,9a1.6,1.6,0,0,1,0,2.4l-8.9,8.9A1.5,1.5,0,0,1,22.7,28.4Z"/><path class="a" d="M31.6,19.5H10.2a1.7,1.7,0,0,1-1.7-1.7,1.6,1.6,0,0,1,1.7-1.7H31.6a1.7,1.7,0,0,1,1.7,1.7A1.8,1.8,0,0,1,31.6,19.5Z"/></svg>