<svg xmlns="http://www.w3.org/2000/svg" viewBox="0 0 33.7 34.8"><defs><style>.a{fill:#fff;}</style></defs><path class="a" d="M15.2,22.4c1.4,0,2.2-1.1,2.2-2.6s-.8-2.7-2.2-2.7-2.1,1.1-2.1,2.7S13.9,22.4,15.2,22.4Z"/><path class="a" d="M33.3,13.4a2.4,2.4,0,0,0-1.2-.7H6.3V6a2.6,2.6,0,0,1,.8-1.9A2.4,2.4,0,0,1,9,3.3H19.8l.5.2V9a.9.9,0,0,0,.4.8.9.9,0,0,0,.7.3h8.7a8.4,8.4,0,0,0-.5-1.7A7.6,7.6,0,0,0,28.5,7l-5-5.2A6.4,6.4,0,0,0,21.6.5,6.9,6.9,0,0,0,19.2,0H9A5.7,5.7,0,0,0,4.8,1.7,5.8,5.8,0,0,0,3,6v6.7H2a2,2,0,0,0-1.4.6A2,2,0,0,0,0,14.7V24.8a2,2,0,0,0,.6,1.4,2,2,0,0,0,1.4.6H3v2A5.4,5.4,0,0,0,4.8,33,5.4,5.4,0,0,0,9,34.8H24.3a6,6,0,0,0,5.9-6v-2h1.5a1.8,1.8,0,0,0,1.4-.6,2,2,0,0,0,.6-1.4V14.7A2,2,0,0,0,33.3,13.4Zm-18,1.8A4.4,4.4,0,0,1,20,19.7a4.5,4.5,0,0,1-4.9,4.6,4.3,4.3,0,0,1-4.6-4.5A4.5,4.5,0,0,1,15.3,15.2ZM3.9,24.1V15.3H6.4v6.8h3.8v2Zm23,4.8a2.5,2.5,0,0,1-.7,1.9,2.9,2.9,0,0,1-1.9.8H9a2.7,2.7,0,0,1-1.9-.8,2.6,2.6,0,0,1-.8-1.9V26.8H26.9Zm2.9-5.2a14.4,14.4,0,0,1-3.4.5c-1.9,0-3.3-.4-4.1-1.3a4,4,0,0,1-1.3-3c0-3,2.4-4.6,5.6-4.6a8.3,8.3,0,0,1,2.8.4l-.5,2a4.5,4.5,0,0,0-2.4-.5c-1.6,0-2.9.8-2.9,2.5a2.7,2.7,0,0,0,2.9,2.6h.9V20.8H26V18.9h3.8Z"/></svg>