<svg xmlns="http://www.w3.org/2000/svg" viewBox="0 0 36 35.1"><defs><style>.a{fill:#fff;}</style></defs><path class="a" d="M7.4,29.7h0a1.6,1.6,0,0,1-.9.3H4.4l-.9-.3h0l-.8-.5-.8-.6L1.3,28l-.4-.9h0a2.2,2.2,0,0,1-.3-1,3.4,3.4,0,0,1-.1-1,3.1,3.1,0,0,1,.1-1,1.7,1.7,0,0,1,.3-1h0c.1-.3.3-.5.4-.8l.6-.7.8-.7.8-.4h0l.9-.3H6.5l.9.2h0l.9.4a4.6,4.6,0,0,1,.7.7l.6.7.5.8H10a1.6,1.6,0,0,1,.3.9,4.3,4.3,0,0,1,.2,1.1,3.6,3.6,0,0,1-.2,1,2.9,2.9,0,0,1-.2.9H10a5.9,5.9,0,0,1-.4.8l-.6.7-.7.6ZM5.7,16.6l-1.9.2a4.9,4.9,0,0,0-1.7.6H1.9a23.3,23.3,0,0,1,.8-3.8,21.1,21.1,0,0,1,1.6-3.4,17.6,17.6,0,0,1,2.4-3,17,17,0,0,1,3-2.3v.3h0a10.9,10.9,0,0,0,.1,1.8,8.8,8.8,0,0,0,.5,1.5h.1v.2h-.1a14.5,14.5,0,0,0-3.1,3.4A12.1,12.1,0,0,0,5.7,16.6Zm18,13.7.4.5.4.4a3.9,3.9,0,0,0,1,.8l1.2.8h.1a14.4,14.4,0,0,1-4,1.8,17.4,17.4,0,0,1-4.5.6,17.8,17.8,0,0,1-4.7-.6,15.3,15.3,0,0,1-4.1-1.9h.1l1-.6.9-.8h0c.2-.1.3-.3.5-.5l.4-.6h0a11.7,11.7,0,0,0,2.8,1.1,15.5,15.5,0,0,0,3.1.4,9.7,9.7,0,0,0,2.9-.4A9.2,9.2,0,0,0,23.7,30.3ZM13.7,3.1h0a3.6,3.6,0,0,1,.4-.9l.6-.7a2.1,2.1,0,0,1,.8-.6l.8-.5h0l.9-.3h2l.9.3h0l.9.5a4.6,4.6,0,0,1,.7.7l.6.7a3.5,3.5,0,0,1,.5.8h0l.3.9c0,.3.1.7.1,1h0c0,.4-.1.7-.1,1l-.3.9a2.2,2.2,0,0,1-.5.8,1.8,1.8,0,0,1-.5.7l-.7.6-.9.5-1,.3h-2l-.9-.2h-.1l-.8-.5-.7-.6a1.9,1.9,0,0,1-.6-.7,4.1,4.1,0,0,1-.5-.9h0l-.3-.9a3.1,3.1,0,0,1-.1-1h0c0-.4.1-.7.1-1.1A3.6,3.6,0,0,1,13.7,3.1ZM34.1,21.6l.6.8.4.8a1.6,1.6,0,0,1,.3.9,3.8,3.8,0,0,1,.1,1,4.1,4.1,0,0,1-.1,1.1,1.6,1.6,0,0,1-.3.9h0l-.4.8-.6.7-.8.7a2,2,0,0,1-.8.4h0l-1,.4h-1a5.8,5.8,0,0,1-1.9-.4A4.8,4.8,0,0,1,27,28.6l-.6-.7a5.6,5.6,0,0,1-.5-.8H26a1.6,1.6,0,0,1-.3-.9,4.3,4.3,0,0,1-.2-1.1,4.4,4.4,0,0,1,.2-1,2.9,2.9,0,0,1,.2-.9H26a2,2,0,0,1,.4-.8l.6-.8.7-.6.9-.5h0l.9-.3h1.1a4.1,4.1,0,0,1,1.9.4A5.4,5.4,0,0,1,34.1,21.6Zm-8-13.1a4.9,4.9,0,0,0,.5-1.6,5.5,5.5,0,0,0,.2-1.8h0V4.8h.1a17.6,17.6,0,0,1,3,2.4,17,17,0,0,1,2.3,3,15.8,15.8,0,0,1,1.6,3.5,17.7,17.7,0,0,1,.8,4l-.4-.2-.4-.2h.1l-1.5-.5-1.6-.2h0a12.6,12.6,0,0,0-1.7-4.4,12.2,12.2,0,0,0-3-3.4V8.5h0Z"/></svg>