<svg xmlns="http://www.w3.org/2000/svg" viewBox="0 0 35.6 35.7"><defs><style>.a{fill:#fff;}</style></defs><path class="a" d="M6.5,35.7a6.1,6.1,0,0,1-4.6-2A6.2,6.2,0,0,1,0,29.1H0V18H0a6.3,6.3,0,0,1,1.9-4.7,6.5,6.5,0,0,1,4.6-2h3.9a2.3,2.3,0,0,1,1.2.6,1.7,1.7,0,0,1,0,2.4,1.4,1.4,0,0,1-1.1.6h-4a4,4,0,0,0-2.1.9,3.3,3.3,0,0,0-.8,2.2h0V28.9h0a3.2,3.2,0,0,0,.8,2.1,3.3,3.3,0,0,0,2.1.9H29.1a3.1,3.1,0,0,0,2.9-3,.1.1,0,0,0-.1-.1h0V18h0a2.9,2.9,0,0,0-.8-2.2,3.4,3.4,0,0,0-2-.9h-4a1.6,1.6,0,0,1-1.2-.6,1.6,1.6,0,0,1-.4-1.2,1.6,1.6,0,0,1,.4-1.2,2.7,2.7,0,0,1,1.2-.6h4a6.7,6.7,0,0,1,6.5,6.7h0V28.9h0a6.6,6.6,0,0,1-1.9,4.6,6.3,6.3,0,0,1-4.6,2Zm10.6-7.5-.5-.3-6.1-5.8-.4-.6c0-.2-.1-.4-.1-.7s.1-.4.1-.6.3-.4.4-.6l.6-.4h1.3l.6.4,6,5.8.4.6a1.4,1.4,0,0,1,.2.6,1.4,1.4,0,0,1-.2.7l-.4.6-.5.3H17.1Zm0,0-.6-.4-.4-.5a2.5,2.5,0,0,1,0-1.4l.4-.5,6.1-5.8.6-.4.6-.2.7.2.6.4.3.5a1.4,1.4,0,0,1,.2.7,1.9,1.9,0,0,1-.2.7l-.3.5L19,27.8a1.3,1.3,0,0,1-.6.4H17.1Zm-.6-.4a1.7,1.7,0,0,1-.5-1.2V1.7A1.8,1.8,0,0,1,16.5.5,2.1,2.1,0,0,1,17.8,0,1.7,1.7,0,0,1,19,.5a1.8,1.8,0,0,1,.5,1.2V26.6a1.7,1.7,0,0,1-.5,1.2,1.3,1.3,0,0,1-1.2.5A1.7,1.7,0,0,1,16.5,27.8Z"/></svg>