<svg xmlns="http://www.w3.org/2000/svg" viewBox="0 0 35.6 35.6"><defs><style>.a{fill:#fff;}</style></defs><path class="a" d="M28.9,35.6H6.7A6.7,6.7,0,0,1,0,28.9V6.7A6.7,6.7,0,0,1,6.7,0H28.9a6.7,6.7,0,0,1,6.7,6.7V28.9A6.7,6.7,0,0,1,28.9,35.6ZM6.7,3.3A3.4,3.4,0,0,0,3.3,6.7V28.9a3.4,3.4,0,0,0,3.4,3.3H28.9a3.3,3.3,0,0,0,3.3-3.3V6.7a3.4,3.4,0,0,0-3.3-3.4Z"/><path class="a" d="M13.3,24.7v1.7A1.6,1.6,0,0,1,11.7,28,1.6,1.6,0,0,1,10,26.4V24.7Z"/><rect class="a" x="22.2" y="16.9" width="3.3" height="0.02"/><path class="a" d="M22.2,19.1h3.3v7.3A1.6,1.6,0,0,1,23.9,28a1.7,1.7,0,0,1-1.7-1.6Z"/><path class="a" d="M28.9,15.3a1.7,1.7,0,0,1-1.5,1.6H20.5a1.6,1.6,0,0,1-1.6-1.6,1.6,1.6,0,0,1,1.6-1.7h1.7V9.7A1.8,1.8,0,0,1,23.9,8a1.7,1.7,0,0,1,1.6,1.7v3.9h1.7A1.7,1.7,0,0,1,28.9,15.3Z"/><path class="a" d="M27.4,16.9h0Z"/><path class="a" d="M16.7,20.8A1.8,1.8,0,0,1,15,22.5H8.3a1.7,1.7,0,0,1,0-3.4H10V9.7A1.7,1.7,0,0,1,11.7,8a1.7,1.7,0,0,1,1.6,1.7v9.4H15A1.8,1.8,0,0,1,16.7,20.8Z"/><path class="a" d="M27.4,16.9h0Z"/></svg>