<svg xmlns="http://www.w3.org/2000/svg" viewBox="0 0 36 35.1"><defs><style>.a{fill:#fff;}</style></defs><path class="a" d="M4.3,15.9H4.2a4.2,4.2,0,0,1-3-1.2,4.1,4.1,0,0,1-1.2-3V4.2a4.2,4.2,0,0,1,1.2-3A4.2,4.2,0,0,1,4.2,0h7.6a4.1,4.1,0,0,1,3,1.2,4.2,4.2,0,0,1,1.2,3v7.5a4.1,4.1,0,0,1-4.2,4.2ZM1.7,28.8a1.3,1.3,0,0,1-1.2-.5A1.7,1.7,0,0,1,0,27.1a2.1,2.1,0,0,1,.5-1.2,1.7,1.7,0,0,1,1.2-.5H14.3a1.7,1.7,0,0,1,1.2.5,1.6,1.6,0,0,1,.5,1.2,1.3,1.3,0,0,1-.5,1.2,1.3,1.3,0,0,1-1.2.5ZM4.3,3.4l-.6.2a1.4,1.4,0,0,0-.2.6h0v7.5a.8.8,0,0,0,.2.6.7.7,0,0,0,.6.2h7.5c.3,0,.4,0,.6-.2a.6.6,0,0,0,.3-.6V4.2h0a.9.9,0,0,0-.3-.6l-.6-.2Zm9.4,25.3-.6-.4-4.8-5-.5-.6a1.9,1.9,0,0,1-.2-.8,2.1,2.1,0,0,1,.5-1.2,1.7,1.7,0,0,1,1.2-.5,1.1,1.1,0,0,1,.8.3,1,1,0,0,1,.6.5h0l4.9,5,.3.5a2.5,2.5,0,0,1,.2.7,1.4,1.4,0,0,1-.2.6,3.3,3.3,0,0,1-.3.6l-.5.2H13.7ZM8.3,33.4a1.7,1.7,0,0,1-.5-1.2,1.3,1.3,0,0,1,.1-.6,1,1,0,0,1,.4-.5L13.1,26l.6-.4H15l.5.4.4.6c0,.2.1.4.1.6s-.1.5-.1.7l-.4.5-4.8,4.9a1.2,1.2,0,0,1-.5.5H9.5A1.3,1.3,0,0,1,8.3,33.4ZM26.5,14.7h-.7a1,1,0,0,1-.5-.4L20.4,9.1l-.3-.5a1.4,1.4,0,0,1-.2-.7,1.4,1.4,0,0,1,.2-.6l.3-.6.6-.3h1.3l.5.3,4.9,5.1.3.6a1.3,1.3,0,0,1,.1.6,1.6,1.6,0,0,1-.5,1.2,1.7,1.7,0,0,1-1.2.5Zm-4.8-5a1.7,1.7,0,0,1-1.2-.5A1.6,1.6,0,0,1,20,8a1.3,1.3,0,0,1,.5-1.2,1.7,1.7,0,0,1,1.2-.5H34.3A1.7,1.7,0,0,1,36,8a2.1,2.1,0,0,1-.5,1.2,1.7,1.7,0,0,1-1.2.5Zm2.4,25.4a4,4,0,0,1-2.9-1.2,4.1,4.1,0,0,1-1.2-3V23.4a4.1,4.1,0,0,1,1.2-3,4,4,0,0,1,2.9-1.2h7.7a4.4,4.4,0,0,1,3,1.2,4.1,4.1,0,0,1,1.2,3v7.5a4.1,4.1,0,0,1-1.2,3,4.4,4.4,0,0,1-3,1.2H24.1ZM21,9.5l-.5-.3c-.1-.2-.3-.3-.4-.6A1.3,1.3,0,0,1,20,8a1.5,1.5,0,0,1,.1-.7l.4-.5,4.8-5,.4-.2h.6A1.7,1.7,0,0,1,28,3.2a.9.9,0,0,1-.1.5.8.8,0,0,1-.2.4l-4.8,5-.6.4-.6.2Zm3.1,13.1-.5.2a.9.9,0,0,0-.3.6v7.5h0a.5.5,0,0,0,.3.5.5.5,0,0,0,.5.3h7.6a.9.9,0,0,0,.6-.3.8.8,0,0,0,.2-.5h0V23.4a1.4,1.4,0,0,0-.2-.6l-.6-.2Z"/></svg>