<svg xmlns="http://www.w3.org/2000/svg" viewBox="0 0 35.6 36.9"><defs><style>.a{fill:#fff;}</style></defs><path class="a" d="M6.5,36.9a7,7,0,0,1-4.6-2A6.4,6.4,0,0,1,0,30.2H0V19.2H0a6,6,0,0,1,1.9-4.6,6.1,6.1,0,0,1,4.6-2h3.9a1.4,1.4,0,0,1,1.3.5,1.6,1.6,0,0,1,.6,1.2h0a1.8,1.8,0,0,1-.6,1.3,1.7,1.7,0,0,1-1.2.5h-4a2.9,2.9,0,0,0-2.1.9A3.2,3.2,0,0,0,3.6,19h0V30h0a3.2,3.2,0,0,0,.8,2.1,2.9,2.9,0,0,0,2.1.9H29.1a2.5,2.5,0,0,0,2-.9,2.9,2.9,0,0,0,.9-2.1h-.1V19.2h0a2.8,2.8,0,0,0-.8-2.1,2.5,2.5,0,0,0-2-.9h-4a2.1,2.1,0,0,1-1.3-.5,2.1,2.1,0,0,1-.5-1.3h0a1.8,1.8,0,0,1,.5-1.2,1.7,1.7,0,0,1,1.3-.5h4a6.3,6.3,0,0,1,4.6,2A6.4,6.4,0,0,1,35.6,19h0V30h0a6.8,6.8,0,0,1-1.9,4.7,7.2,7.2,0,0,1-4.6,2ZM11,9.1l-.6-.4-.3-.5a1.4,1.4,0,0,1-.2-.7,1.9,1.9,0,0,1,.2-.7l.3-.5L16.6.5A.5.5,0,0,1,17,.3h.5a1.7,1.7,0,0,1,1.2.5A1.7,1.7,0,0,1,19.2,2a.9.9,0,0,1-.1.5.8.8,0,0,1-.2.5h0l-6,5.8-.5.4h-.7Zm5.5,16.4a1.7,1.7,0,0,1-.5-1.2V1.7A1.8,1.8,0,0,1,16.5.5,2.1,2.1,0,0,1,17.8,0,1.7,1.7,0,0,1,19,.5a1.8,1.8,0,0,1,.5,1.2V24.3A1.7,1.7,0,0,1,17.8,26,2.1,2.1,0,0,1,16.5,25.5ZM23.2,9.2l-.6-.4L16.6,3l-.3-.5V2A1.7,1.7,0,0,1,16.8.7,1.7,1.7,0,0,1,18,.2h.5l.4.2L25,6.3l.3.5a1.9,1.9,0,0,1,.2.7,1.4,1.4,0,0,1-.2.7l-.3.5-.5.4-.7.2Z"/></svg>