<svg xmlns="http://www.w3.org/2000/svg" viewBox="0 0 35.4 35.4"><defs><style>.a{fill:#fff;}</style></defs><path class="a" d="M35.4,27.6V32A3.4,3.4,0,0,1,32,35.4H27.6A3.4,3.4,0,0,1,24.2,32V27.6a3.4,3.4,0,0,1,3.4-3.3h.5V22.7a3.3,3.3,0,0,0-3.3-3.3H10.5a3.3,3.3,0,0,0-3.3,3.3v1.6h.6a3.3,3.3,0,0,1,3.3,3.3V32a3.4,3.4,0,0,1-3.3,3.4H3.3A3.4,3.4,0,0,1,0,32V27.6a3.3,3.3,0,0,1,3.3-3.3h.5V22.7A6.8,6.8,0,0,1,4,21.3a6.4,6.4,0,0,1,.6-1.8L5,19a3.9,3.9,0,0,1,.8-1,6.7,6.7,0,0,1,4.7-2H16V11.1h-.5a3.4,3.4,0,0,1-3.4-3.3V3.3A3.4,3.4,0,0,1,15.5,0h4.4a3.3,3.3,0,0,1,3.3,3.3V7.8a3.3,3.3,0,0,1-3.3,3.3h-.5V16h5.4a6.7,6.7,0,0,1,6.7,6.7v1.6H32A3.4,3.4,0,0,1,35.4,27.6Z"/></svg>